<mxfile host="app.diagrams.net" agent="Mozilla/5.0 (Windows NT 10.0; Win64; x64) AppleWebKit/537.36 (KHTML, like Gecko) Chrome/133.0.0.0 Safari/537.36" version="26.0.12">
  <diagram name="Página-1" id="wz_CHDK_Uvrmtqs5isK4">
    <mxGraphModel dx="2887" dy="1268" grid="0" gridSize="10" guides="1" tooltips="1" connect="1" arrows="1" fold="1" page="0" pageScale="1" pageWidth="827" pageHeight="1169" math="0" shadow="0">
      <root>
        <mxCell id="0" />
        <mxCell id="1" parent="0" />
        <mxCell id="mCqrBkyi7Igr85gBdBfP-33" value="Prestação de serviço" style="rounded=0;whiteSpace=wrap;html=1;fillColor=none;" parent="1" vertex="1">
          <mxGeometry x="-790.97" y="-139" width="1448.97" height="20" as="geometry" />
        </mxCell>
        <mxCell id="mCqrBkyi7Igr85gBdBfP-34" value="" style="rounded=0;whiteSpace=wrap;html=1;fillColor=none;" parent="1" vertex="1">
          <mxGeometry x="-790.97" y="-119" width="1448.97" height="624" as="geometry" />
        </mxCell>
        <mxCell id="mCqrBkyi7Igr85gBdBfP-36" value="Cliente" style="rounded=0;whiteSpace=wrap;html=1;fillColor=none;rotation=-90;" parent="1" vertex="1">
          <mxGeometry x="-907.61" y="-32.53" width="202.24" height="30" as="geometry" />
        </mxCell>
        <mxCell id="mCqrBkyi7Igr85gBdBfP-37" value="Sistema" style="rounded=0;whiteSpace=wrap;html=1;fillColor=none;rotation=-90;" parent="1" vertex="1">
          <mxGeometry x="-911.5" y="173.46" width="210.19" height="30" as="geometry" />
        </mxCell>
        <mxCell id="mCqrBkyi7Igr85gBdBfP-38" style="edgeStyle=orthogonalEdgeStyle;rounded=0;orthogonalLoop=1;jettySize=auto;html=1;exitX=0.5;exitY=1;exitDx=0;exitDy=0;" parent="1" edge="1">
          <mxGeometry relative="1" as="geometry">
            <mxPoint x="-240.0300000000001" y="506" as="sourcePoint" />
            <mxPoint x="-240.09000000000003" y="506" as="targetPoint" />
          </mxGeometry>
        </mxCell>
        <mxCell id="mCqrBkyi7Igr85gBdBfP-62" value="" style="endArrow=none;dashed=1;html=1;dashPattern=1 3;strokeWidth=2;rounded=0;exitX=0;exitY=0.345;exitDx=0;exitDy=0;exitPerimeter=0;entryX=1.001;entryY=0.331;entryDx=0;entryDy=0;entryPerimeter=0;" parent="1" target="mCqrBkyi7Igr85gBdBfP-34" edge="1">
          <mxGeometry width="50" height="50" relative="1" as="geometry">
            <mxPoint x="-790.97" y="83.99999999999991" as="sourcePoint" />
            <mxPoint x="283" y="83" as="targetPoint" />
          </mxGeometry>
        </mxCell>
        <mxCell id="ntNzyzuOF1n4TWdGQBcq-4" value="Prestador de serviço" style="rounded=0;whiteSpace=wrap;html=1;fillColor=none;rotation=-90;" vertex="1" parent="1">
          <mxGeometry x="-911.5" y="383" width="210.19" height="30" as="geometry" />
        </mxCell>
        <mxCell id="ntNzyzuOF1n4TWdGQBcq-11" value="" style="endArrow=none;dashed=1;html=1;dashPattern=1 3;strokeWidth=2;rounded=0;exitX=0;exitY=0.345;exitDx=0;exitDy=0;exitPerimeter=0;entryX=1.003;entryY=0.661;entryDx=0;entryDy=0;entryPerimeter=0;" edge="1" parent="1" target="mCqrBkyi7Igr85gBdBfP-34">
          <mxGeometry width="50" height="50" relative="1" as="geometry">
            <mxPoint x="-789.6600000000001" y="292.9999999999999" as="sourcePoint" />
            <mxPoint x="285" y="294" as="targetPoint" />
          </mxGeometry>
        </mxCell>
        <mxCell id="ntNzyzuOF1n4TWdGQBcq-74" value="" style="edgeStyle=orthogonalEdgeStyle;rounded=0;orthogonalLoop=1;jettySize=auto;html=1;" edge="1" parent="1" source="ntNzyzuOF1n4TWdGQBcq-71" target="ntNzyzuOF1n4TWdGQBcq-72">
          <mxGeometry relative="1" as="geometry" />
        </mxCell>
        <mxCell id="ntNzyzuOF1n4TWdGQBcq-71" value="Aceitou o serviço" style="ellipse;whiteSpace=wrap;html=1;aspect=fixed;fillColor=none;" vertex="1" parent="1">
          <mxGeometry x="-732" y="353" width="90" height="90" as="geometry" />
        </mxCell>
        <mxCell id="ntNzyzuOF1n4TWdGQBcq-81" value="" style="edgeStyle=orthogonalEdgeStyle;rounded=0;orthogonalLoop=1;jettySize=auto;html=1;" edge="1" parent="1" source="ntNzyzuOF1n4TWdGQBcq-72" target="ntNzyzuOF1n4TWdGQBcq-80">
          <mxGeometry relative="1" as="geometry" />
        </mxCell>
        <mxCell id="ntNzyzuOF1n4TWdGQBcq-72" value="&lt;span style=&quot;font-size: 10px;&quot;&gt;Chegada ao local&lt;/span&gt;" style="rounded=1;whiteSpace=wrap;html=1;fillColor=none;" vertex="1" parent="1">
          <mxGeometry x="-616" y="368" width="120" height="60" as="geometry" />
        </mxCell>
        <mxCell id="ntNzyzuOF1n4TWdGQBcq-89" style="edgeStyle=orthogonalEdgeStyle;rounded=0;orthogonalLoop=1;jettySize=auto;html=1;exitX=0.5;exitY=0;exitDx=0;exitDy=0;entryX=0.5;entryY=1;entryDx=0;entryDy=0;" edge="1" parent="1" source="ntNzyzuOF1n4TWdGQBcq-73" target="ntNzyzuOF1n4TWdGQBcq-79">
          <mxGeometry relative="1" as="geometry" />
        </mxCell>
        <mxCell id="ntNzyzuOF1n4TWdGQBcq-73" value="&lt;span style=&quot;font-size: 10px;&quot;&gt;envio de fotos e videos iniciais&lt;/span&gt;" style="rounded=1;whiteSpace=wrap;html=1;fillColor=none;" vertex="1" parent="1">
          <mxGeometry x="-289" y="368" width="120" height="60" as="geometry" />
        </mxCell>
        <mxCell id="ntNzyzuOF1n4TWdGQBcq-91" style="edgeStyle=orthogonalEdgeStyle;rounded=0;orthogonalLoop=1;jettySize=auto;html=1;exitX=1;exitY=0.5;exitDx=0;exitDy=0;entryX=0.5;entryY=0;entryDx=0;entryDy=0;" edge="1" parent="1" source="ntNzyzuOF1n4TWdGQBcq-79" target="ntNzyzuOF1n4TWdGQBcq-90">
          <mxGeometry relative="1" as="geometry" />
        </mxCell>
        <mxCell id="ntNzyzuOF1n4TWdGQBcq-79" value="Recebimento das imagens" style="whiteSpace=wrap;html=1;fillColor=none;rounded=1;" vertex="1" parent="1">
          <mxGeometry x="-289" y="158.45999999999998" width="120" height="60" as="geometry" />
        </mxCell>
        <mxCell id="ntNzyzuOF1n4TWdGQBcq-82" value="" style="edgeStyle=orthogonalEdgeStyle;rounded=0;orthogonalLoop=1;jettySize=auto;html=1;" edge="1" parent="1" source="ntNzyzuOF1n4TWdGQBcq-80" target="ntNzyzuOF1n4TWdGQBcq-73">
          <mxGeometry relative="1" as="geometry" />
        </mxCell>
        <mxCell id="ntNzyzuOF1n4TWdGQBcq-83" value="Sim" style="edgeLabel;html=1;align=center;verticalAlign=middle;resizable=0;points=[];" vertex="1" connectable="0" parent="ntNzyzuOF1n4TWdGQBcq-82">
          <mxGeometry x="-0.3908" relative="1" as="geometry">
            <mxPoint x="1" as="offset" />
          </mxGeometry>
        </mxCell>
        <mxCell id="ntNzyzuOF1n4TWdGQBcq-88" value="" style="edgeStyle=orthogonalEdgeStyle;rounded=0;orthogonalLoop=1;jettySize=auto;html=1;" edge="1" parent="1" source="ntNzyzuOF1n4TWdGQBcq-80" target="ntNzyzuOF1n4TWdGQBcq-84">
          <mxGeometry relative="1" as="geometry" />
        </mxCell>
        <mxCell id="ntNzyzuOF1n4TWdGQBcq-80" value="Serviço solicitado coincide com a descrição de serviço" style="rhombus;whiteSpace=wrap;html=1;fillColor=none;" vertex="1" parent="1">
          <mxGeometry x="-472" y="332.23" width="133.97" height="131.54" as="geometry" />
        </mxCell>
        <mxCell id="ntNzyzuOF1n4TWdGQBcq-84" value="Cancelamento do serviço e estorno do valor" style="ellipse;whiteSpace=wrap;html=1;aspect=fixed;fillColor=none;" vertex="1" parent="1">
          <mxGeometry x="-450.01" y="143.46" width="90" height="90" as="geometry" />
        </mxCell>
        <mxCell id="ntNzyzuOF1n4TWdGQBcq-94" style="edgeStyle=orthogonalEdgeStyle;rounded=0;orthogonalLoop=1;jettySize=auto;html=1;exitX=0.75;exitY=0;exitDx=0;exitDy=0;entryX=0.5;entryY=1;entryDx=0;entryDy=0;" edge="1" parent="1" source="ntNzyzuOF1n4TWdGQBcq-90" target="ntNzyzuOF1n4TWdGQBcq-93">
          <mxGeometry relative="1" as="geometry">
            <Array as="points">
              <mxPoint x="-43" y="132" />
              <mxPoint x="-73" y="132" />
            </Array>
          </mxGeometry>
        </mxCell>
        <mxCell id="ntNzyzuOF1n4TWdGQBcq-90" value="&lt;span style=&quot;font-size: 10px;&quot;&gt;Realização do serviço&lt;/span&gt;" style="rounded=1;whiteSpace=wrap;html=1;fillColor=none;" vertex="1" parent="1">
          <mxGeometry x="-133" y="368" width="120" height="60" as="geometry" />
        </mxCell>
        <mxCell id="ntNzyzuOF1n4TWdGQBcq-111" style="edgeStyle=orthogonalEdgeStyle;rounded=0;orthogonalLoop=1;jettySize=auto;html=1;exitX=1;exitY=0.5;exitDx=0;exitDy=0;entryX=0;entryY=0.5;entryDx=0;entryDy=0;" edge="1" parent="1" source="ntNzyzuOF1n4TWdGQBcq-92" target="ntNzyzuOF1n4TWdGQBcq-109">
          <mxGeometry relative="1" as="geometry" />
        </mxCell>
        <mxCell id="ntNzyzuOF1n4TWdGQBcq-92" value="&lt;span style=&quot;font-size: 10px;&quot;&gt;envio de fotos e videos finais&lt;/span&gt;" style="rounded=1;whiteSpace=wrap;html=1;fillColor=none;" vertex="1" parent="1">
          <mxGeometry x="20" y="368" width="120" height="60" as="geometry" />
        </mxCell>
        <mxCell id="ntNzyzuOF1n4TWdGQBcq-95" style="edgeStyle=orthogonalEdgeStyle;rounded=0;orthogonalLoop=1;jettySize=auto;html=1;exitX=1;exitY=1;exitDx=0;exitDy=0;" edge="1" parent="1" source="ntNzyzuOF1n4TWdGQBcq-93" target="ntNzyzuOF1n4TWdGQBcq-92">
          <mxGeometry relative="1" as="geometry" />
        </mxCell>
        <mxCell id="ntNzyzuOF1n4TWdGQBcq-96" value="Sim" style="edgeLabel;html=1;align=center;verticalAlign=middle;resizable=0;points=[];" vertex="1" connectable="0" parent="ntNzyzuOF1n4TWdGQBcq-95">
          <mxGeometry x="-0.8052" y="-2" relative="1" as="geometry">
            <mxPoint as="offset" />
          </mxGeometry>
        </mxCell>
        <mxCell id="ntNzyzuOF1n4TWdGQBcq-98" style="edgeStyle=orthogonalEdgeStyle;rounded=0;orthogonalLoop=1;jettySize=auto;html=1;exitX=1;exitY=0.5;exitDx=0;exitDy=0;entryX=0;entryY=0.5;entryDx=0;entryDy=0;" edge="1" parent="1" source="ntNzyzuOF1n4TWdGQBcq-93" target="ntNzyzuOF1n4TWdGQBcq-97">
          <mxGeometry relative="1" as="geometry" />
        </mxCell>
        <mxCell id="ntNzyzuOF1n4TWdGQBcq-93" value="Serviço foi bem sucedido" style="rhombus;whiteSpace=wrap;html=1;fillColor=none;" vertex="1" parent="1">
          <mxGeometry x="-130.49" y="-66.63999999999999" width="114.97" height="98.23" as="geometry" />
        </mxCell>
        <mxCell id="ntNzyzuOF1n4TWdGQBcq-100" style="edgeStyle=orthogonalEdgeStyle;rounded=0;orthogonalLoop=1;jettySize=auto;html=1;exitX=0.5;exitY=1;exitDx=0;exitDy=0;entryX=0.5;entryY=0;entryDx=0;entryDy=0;" edge="1" parent="1" source="ntNzyzuOF1n4TWdGQBcq-97" target="ntNzyzuOF1n4TWdGQBcq-99">
          <mxGeometry relative="1" as="geometry" />
        </mxCell>
        <mxCell id="ntNzyzuOF1n4TWdGQBcq-97" value="&lt;span style=&quot;font-size: 10px;&quot;&gt;envio de fotos e videos provando a falha&lt;/span&gt;" style="rounded=1;whiteSpace=wrap;html=1;fillColor=none;" vertex="1" parent="1">
          <mxGeometry x="111" y="-47.51999999999998" width="120" height="60" as="geometry" />
        </mxCell>
        <mxCell id="ntNzyzuOF1n4TWdGQBcq-102" value="" style="edgeStyle=orthogonalEdgeStyle;rounded=0;orthogonalLoop=1;jettySize=auto;html=1;" edge="1" parent="1" source="ntNzyzuOF1n4TWdGQBcq-99" target="ntNzyzuOF1n4TWdGQBcq-101">
          <mxGeometry relative="1" as="geometry" />
        </mxCell>
        <mxCell id="ntNzyzuOF1n4TWdGQBcq-99" value="&lt;span style=&quot;font-size: 10px;&quot;&gt;Verificação da reclamação&lt;/span&gt;" style="rounded=1;whiteSpace=wrap;html=1;fillColor=none;" vertex="1" parent="1">
          <mxGeometry x="111" y="123" width="120" height="60" as="geometry" />
        </mxCell>
        <mxCell id="ntNzyzuOF1n4TWdGQBcq-106" value="" style="edgeStyle=orthogonalEdgeStyle;rounded=0;orthogonalLoop=1;jettySize=auto;html=1;" edge="1" parent="1" source="ntNzyzuOF1n4TWdGQBcq-101" target="ntNzyzuOF1n4TWdGQBcq-105">
          <mxGeometry relative="1" as="geometry" />
        </mxCell>
        <mxCell id="ntNzyzuOF1n4TWdGQBcq-107" value="Sim" style="edgeLabel;html=1;align=center;verticalAlign=middle;resizable=0;points=[];" vertex="1" connectable="0" parent="ntNzyzuOF1n4TWdGQBcq-106">
          <mxGeometry x="-0.0583" relative="1" as="geometry">
            <mxPoint x="2" as="offset" />
          </mxGeometry>
        </mxCell>
        <mxCell id="ntNzyzuOF1n4TWdGQBcq-110" style="edgeStyle=orthogonalEdgeStyle;rounded=0;orthogonalLoop=1;jettySize=auto;html=1;exitX=0;exitY=1;exitDx=0;exitDy=0;entryX=0.75;entryY=0;entryDx=0;entryDy=0;" edge="1" parent="1" source="ntNzyzuOF1n4TWdGQBcq-101" target="ntNzyzuOF1n4TWdGQBcq-92">
          <mxGeometry relative="1" as="geometry">
            <Array as="points">
              <mxPoint x="299" y="201" />
              <mxPoint x="110" y="201" />
            </Array>
          </mxGeometry>
        </mxCell>
        <mxCell id="ntNzyzuOF1n4TWdGQBcq-101" value="A reclamação é válida?" style="rhombus;whiteSpace=wrap;html=1;fillColor=none;" vertex="1" parent="1">
          <mxGeometry x="270" y="103.88" width="114.97" height="98.23" as="geometry" />
        </mxCell>
        <mxCell id="ntNzyzuOF1n4TWdGQBcq-105" value="Cancelamento do serviço, estorno do valor e indenização" style="ellipse;whiteSpace=wrap;html=1;aspect=fixed;fillColor=none;" vertex="1" parent="1">
          <mxGeometry x="438" y="107.99999999999999" width="90" height="90" as="geometry" />
        </mxCell>
        <mxCell id="ntNzyzuOF1n4TWdGQBcq-113" style="edgeStyle=orthogonalEdgeStyle;rounded=0;orthogonalLoop=1;jettySize=auto;html=1;exitX=1;exitY=0.5;exitDx=0;exitDy=0;entryX=0;entryY=0.5;entryDx=0;entryDy=0;" edge="1" parent="1" source="ntNzyzuOF1n4TWdGQBcq-109" target="ntNzyzuOF1n4TWdGQBcq-112">
          <mxGeometry relative="1" as="geometry" />
        </mxCell>
        <mxCell id="ntNzyzuOF1n4TWdGQBcq-109" value="&lt;span style=&quot;font-size: 10px;&quot;&gt;Envio do pagamento&lt;/span&gt;" style="rounded=1;whiteSpace=wrap;html=1;fillColor=none;" vertex="1" parent="1">
          <mxGeometry x="267.48" y="226" width="108.52" height="46" as="geometry" />
        </mxCell>
        <mxCell id="ntNzyzuOF1n4TWdGQBcq-112" value="Finalização do serviço" style="ellipse;whiteSpace=wrap;html=1;aspect=fixed;fillColor=none;" vertex="1" parent="1">
          <mxGeometry x="445" y="211" width="76" height="76" as="geometry" />
        </mxCell>
      </root>
    </mxGraphModel>
  </diagram>
</mxfile>
